# xmcd CD database file
#
# Track frame offsets:
#	150
#	15775
#	37577
#	56657
#
# Disc length: 963 seconds
#
# Revision: 5
# Processed by: cddbd v1.5PL3 Copyright (c) Steve Scherf et al.
# Submitted via: CDex 1.51
#
DISCID=1c03c104
DTITLE=Flame - What Can I Do?
DYEAR=1998
DGENRE=Blues
TTITLE0=What Can I Do?
TTITLE1=Take Me -僕がいる君の未来-
TTITLE2=What Can I Do? (Trancepunk Mix)
TTITLE3=What Can I Do? (Instrumental)
EXTD=YEAR: 1998
EXTT0=
EXTT1=
EXTT2=
EXTT3=
PLAYORDER=
